<?xml version="1.0" encoding="utf-8"?>
<!-- Generator: Adobe Illustrator 19.0.0, SVG Export Plug-In . SVG Version: 6.00 Build 0)  -->
<svg xmlns="http://www.w3.org/2000/svg" xmlns:xlink="http://www.w3.org/1999/xlink" version="1.1" x="0px" y="0px" viewBox="0 0 841.9 595.3" style="enable-background:new 0 0 841.9 595.3;" xml:space="preserve">
<style type="text/css">
	.st0{opacity:0.1;fill:#020303;}
	.st1{display:none;}
	.st2{display:inline;}
	.st3{fill:#010101;}
	.st4{fill:#FFFFFF;}
	.st5{fill-rule:evenodd;clip-rule:evenodd;fill:#0078A9;}
</style>


<g id="Vector_Logo">
	<g>
		<path class="st5" d="M212.2,498.6h-1.4c0-0.7-0.2-1.8-0.2-2c0-0.4,0-1.1-1.1-1.1h-2.2v3.1h-0.9v-7.2h3.1c1.3,0,2.3,0.4,2.3,1.6    c0,1.1-0.4,1.4-0.7,1.8c0.4,0.4,0.7,0.7,0.7,1.4v1.3c0,0.4,0,0.4,0.4,0.4V498.6L212.2,498.6z M210.7,493.3c0-0.9-0.5-0.9-0.9-0.9    h-2.5v2h2.2C210.2,494.4,210.7,494.1,210.7,493.3L210.7,493.3L210.7,493.3z M216.7,494.8c0-4.1-3.4-7.6-7.9-7.6    c-4.1,0-7.6,3.4-7.6,7.6c0,4.5,3.4,7.9,7.6,7.9C213.2,502.7,216.7,499.3,216.7,494.8L216.7,494.8L216.7,494.8z M215.6,494.8    c0,3.8-3.1,6.5-6.8,6.5c-3.8,0-6.5-2.7-6.5-6.5c0-3.4,2.7-6.5,6.5-6.5C212.5,488.3,215.6,491.4,215.6,494.8L215.6,494.8z"/>
		<path class="st5" d="M640.6,355.5c0,10.3-6.7,15.1-18.4,15.1h-22.3v-10.3h22.3c2.2,0,3.8-0.4,4.5-1.1c0.7-0.7,1.4-1.8,1.4-3.1    c0-1.4-0.7-2.9-1.4-3.4c-0.7-0.7-2-1.1-4.1-1.1c-10.6-0.4-24.1,0.4-24.1-14.9c0-6.8,4.5-14.4,16.6-14.4h23v10.3h-21.2    c-2.2,0-3.6,0-4.5,0.7c-1.1,1.1-1.8,2.2-1.8,3.8c0,1.8,1.1,2.9,2.3,3.4c1.4,0.4,2.9,0.7,4.5,0.7h6.3c6.5,0,10.6,1.4,13.5,3.8    C639.1,347.5,640.6,350.6,640.6,355.5L640.6,355.5L640.6,355.5z M592,345c-2.9-2.3-7-3.8-13.5-3.8h-6.3c-1.6,0-3.1-0.4-4.5-0.7    c-1.3-0.5-2.3-1.6-2.3-3.4c0-1.6,0.4-2.7,1.8-3.8c0.9-0.7,2.3-0.7,4.5-0.7h21.2v-10.3h-23c-12.4,0-16.6,7.6-16.6,14.4    c0,15.3,13.5,14.6,24.1,14.9c2.2,0,3.4,0.4,4.1,1.1c0.7,0.5,1.4,2,1.4,3.4c0,1.3-0.7,2.3-1.4,3.1c-1.1,0.7-2.3,1.1-4.5,1.1h-22.3    v10.3H577c11.7,0,18.4-4.9,18.4-15.1C595.4,350.6,593.9,347.5,592,345L592,345L592,345z M547.7,360.7h-27.2V351h26.6v-9.7h-26.6    v-8.8h27.2v-10.1h-38.5v48.2h38.5V360.7L547.7,360.7z M496.7,324.7c-3.8-2-8.3-2.3-14.2-2.3h-26.5v48.2h11.7v-17.6h12.4    c4.1,0,6.5,0.4,8.3,2.2c2,2.3,2,6.5,2,9.7v5.8H502v-9.4c0-4.3-0.4-6.5-1.8-8.8c-1.1-1.4-3.1-3.2-5.9-4.1c3.2-1.1,8.3-5.2,8.3-12.8    C502.5,329.9,500.5,326.8,496.7,324.7L496.7,324.7L496.7,324.7z M431.2,322.3h-36.9l-14.9,15.8l-14-15.8h-46.6v48.2h45.9    l14.8-15.8l14.2,15.8h22.3v-16.2h14.6c9.9,0,20-2.7,20-16.2C450.5,325,440.2,322.3,431.2,322.3L431.2,322.3L431.2,322.3z     M487.4,342.3c-1.8,0.7-3.4,0.7-5.6,0.7l-14,0.4v-11h14c2.2,0,4.1,0,5.6,0.9c1.4,0.7,2.3,2.2,2.3,4.1    C489.7,339.6,488.8,341.2,487.4,342.3L487.4,342.3L487.4,342.3z M431.2,344.7h-15.3v-12.2h15.3c4.1,0,6.8,1.6,6.8,5.8    C438.1,342.3,435.4,344.7,431.2,344.7L431.2,344.7L431.2,344.7z M386.8,346.5l17.8-18.9v38.9L386.8,346.5L386.8,346.5z     M358.7,360.7h-28.6V351h25.6v-9.7h-25.6v-8.8h29l12.8,14L358.7,360.7L358.7,360.7z M608.5,287.4H592l-21.8-36.2v36.2h-23.4    l-4.5-10.6h-24.1l-4.5,10.6h-13.5c-5.6,0-12.8-1.3-16.9-5.4c-3.8-4.1-5.9-9.7-5.9-18.4c0.2-7.2,1.1-13.7,6.3-18.9    c3.4-3.8,9.7-5.6,17.6-5.6h11v10.4h-11c-4.1,0-6.7,0.7-9,2.7c-2.2,2.2-3.1,5.9-3.1,11c0,5.2,0.9,9,3.1,11.5    c1.6,1.6,4.9,2.3,7.9,2.3h5.2l16.6-38H539l19.4,45.5v-45.5h17.8l20.3,33.5v-33.5h11.9V287.4L608.5,287.4z M471.5,239.2h-11.7v48.2    h11.7V239.2L471.5,239.2z M447.1,241.3c-3.8-2.2-7.9-2.2-13.9-2.2h-26.5v48.2h11.3V270h12.4c4.1,0,6.8,0.4,8.6,2    c2,2.5,1.6,6.7,1.6,9.4v6.1h11.9v-9.5c0-4.1-0.4-6.3-2.2-8.6c-1.1-1.4-3.1-3.1-5.6-4.1c3.2-1.4,8.3-5.2,8.3-12.8    C453.2,246.7,450.8,243.7,447.1,241.3L447.1,241.3L447.1,241.3z M398.5,277.5h-27v-9.7h26.6v-9.9h-26.6v-8.6h27v-10.1h-38.7v48.2    h38.7V277.5L398.5,277.5z M351.1,239.2h-18.9L318,271.9l-15.1-32.8h-18.5v45.5l-19.8-45.5h-17.1l-20.7,48.2h12.4l4.3-10.6h24.3    l4.3,10.6h23.6v-37.8l16.9,37.8h9.9l16.9-37.8v37.8h11.7V239.2L351.1,239.2z M538.1,266.5l-7.9-19.1l-7.9,19.1H538.1L538.1,266.5z     M438.1,258.8c-1.8,1.1-3.4,1.1-5.8,1.1h-14.2v-10.6h14.2c2,0,4.3,0,5.8,0.7c1.4,0.9,2.2,2.3,2.2,4.5    C440.2,256.5,439.5,258.3,438.1,258.8L438.1,258.8L438.1,258.8z M247.6,266.5l8.1-19.1l7.9,19.1H247.6L247.6,266.5z M637.7,87.8    H226.4v173.9l14-32h30.1l4.1,7.9v-7.9h35.1l7.9,17.1l7.7-17.1h112c5.2,0,9.7,0.9,13.1,3.8v-3.8h30.8v3.8c5-2.9,11.7-3.8,19.3-3.8    H545l4.1,7.9v-7.9h32.8l4.9,7.9v-7.9h32v67.5h-32.4l-6.3-10.3v10.3h-40.3l-4.5-11h-9.9l-4.5,11h-21.1c-8.3,0-14.4-2-18.5-4.1v4.1    h-50v-15.5c0-2.2-0.4-2.5-1.8-2.5h-1.6v18h-96.7v-8.6l-3.4,8.6h-20.3l-3.4-8.3v8.3h-39.1l-4.1-11h-9.9l-4.5,11h-20v203.8h411.3    V377.2c-4.3,2-10.6,3.1-16.7,3.1h-30.1v-4.1c-3.4,2.7-9.7,4.1-15.5,4.1h-94.5v-15.5c0-2.2-0.4-2.2-2.2-2.2h-1.6v17.6H446v-18.4    c-5.2,2.5-11,2.5-16.2,2.5h-3.4v15.8h-38l-9-10.4l-9.9,10.4h-61v-67.7h62.1l8.8,10.4l9.7-10.4h41.8c4.9,0,12.8,0.7,16.2,4.1v-4.1    h37.3c3.8,0,11,0.7,15.8,4.1v-4.1h56.2v4.1c3.2-2.7,9-4.1,14.2-4.1h31.3v4.1c3.4-2.3,8.3-4.1,14.6-4.1h21.2V87.8L637.7,87.8z"/>
	</g>
</g>
</svg>
